<svg id="Layer_1" data-name="Layer 1" xmlns="http://www.w3.org/2000/svg" width="956.63" height="448.76" viewBox="0 0 956.63 448.76"><defs><style>.cls-1{fill:#fafafa;}</style></defs><title>404logo</title><path class="cls-1" d="M4,198.55V183H19.23v15.52H4Zm0,15.14V198.55H19.23v15.14H4Zm0,15.52V213.69H19.23v15.52H4Zm15.26-30.66V183H34.41v15.52H19.23Zm0,30.66V213.69H34.41v15.52H19.23Zm15.18-30.66V183H49.66v15.52H34.41Zm0,30.66V213.69H49.66v15.52H34.41Zm0,15.52V229.21H49.66v15.52H34.41Zm0,15.45V244.73H49.66v15.45H34.41Zm0,15.52V260.18H49.66V275.7H34.41Zm0,15.45V275.7H49.66v15.45H34.41Zm0,15.52V291.15H49.66v15.52H34.41Zm0,15.14V306.67H49.66v15.14H34.41ZM49.66,198.55V183H64.54v15.52H49.66Zm0,123.26V306.67H64.54v15.14H49.66Zm14.88,0V337.1H49.66V321.81H64.54Zm0-123.26V183H79.8v15.52H64.54Zm0,123.26V306.67H79.8v15.14H64.54Zm15.26,0V337.1H64.54V321.81H79.8Zm0-123.26V183H95.05v15.52H79.8Zm0,30.66V213.69H95.05v15.52H79.8Zm0,15.52V229.21H95.05v15.52H79.8Zm0,15.45V244.73H95.05v15.45H79.8Zm0,15.52V260.18H95.05V275.7H79.8Zm0,15.45V275.7H95.05v15.45H79.8Zm0,15.52V291.15H95.05v15.52H79.8Zm0,15.14V306.67H95.05v15.14H79.8Zm15.26,0V337.1H79.8V321.81H95.05Zm0-123.26V183h15.18v15.52H95.05Zm0,30.66V213.69h15.18v15.52H95.05Zm0,15.52V229.21h15.18v15.52H95.05Zm0,15.45V244.73h15.18v15.45H95.05Zm0,15.52V260.18h15.18V275.7H95.05Zm0,15.45V275.7h15.18v15.45H95.05Zm0,15.52V291.15h15.18v15.52H95.05Zm0,15.14V306.67h15.18v15.14H95.05Zm15.18,0V337.1H95.05V321.81h15.18Zm0-123.26V183h15.26v15.52H110.23Zm0,15.14V198.55h15.26v15.14H110.23Zm0,15.52V213.69h15.26v15.52H110.23Zm0,15.52V229.21h15.26v15.52H110.23Zm15.26-31V198.55h15.18v15.14H125.49Zm0,15.52V213.69h15.18v15.52H125.49Zm0,15.52V229.21h15.18v15.52H125.49Z" transform="translate(-3.97 -42.41)"/><path class="cls-1" d="M125.49,291.15V275.7h15.26v15.45H125.49Zm0,15.52V291.15h15.26v15.52H125.49Zm0,15.14V306.67h15.26v15.14H125.49Zm15.26-30.66V275.7h15.18v15.45H140.74Zm0,30.66V306.67h15.18v15.14H140.74Zm15.18,0V337.1H140.74V321.81h15.18Zm0-30.66V275.7h15.26v15.45H155.92Zm0,30.66V306.67h15.26v15.14H155.92Zm15.26,0V337.1H155.92V321.81h15.26Zm0-30.66V275.7h14.88v15.45H171.18Zm0,30.66V306.67h14.88v15.14H171.18Zm14.88,0V337.1H171.18V321.81h14.88Zm0-30.66V275.7h15.26v15.45H186.06Zm0,30.66V306.67h15.26v15.14H186.06Zm15.26,0V337.1H186.06V321.81h15.26Zm0-30.66V275.7h15.26v15.45H201.31Zm0,30.66V306.67h15.26v15.14H201.31Zm15.26,0V337.1H201.31V321.81h15.26Zm0-30.66V275.7h15.18v15.45H216.57Zm0,30.66V306.67h15.18v15.14H216.57Zm15.18,0V337.1H216.57V321.81h15.18Zm0-30.66V275.7H247v15.45H231.75Zm0,30.66V306.67H247v15.14H231.75Zm15.26,0V337.1H231.75V321.81H247Zm0-30.66V275.7h15.18v15.45H247Zm0,15.52V291.15h15.18v15.52H247Zm0,15.14V306.67h15.18v15.14H247Zm15.18,0V337.1H247V321.81h15.18Zm0-15.14V291.15h15v15.52h-15Zm0,15.14V306.67h15v15.14h-15Zm15,0V337.1h-15V321.81h15Z" transform="translate(-3.97 -42.41)"/><path class="cls-1" d="M262.18,198.55V183h15.26v15.52H262.18Zm0,15.14V198.55h15.26v15.14H262.18Zm0,15.52V213.69h15.26v15.52H262.18Zm0,15.52V229.21h15.26v15.52H262.18Zm0,15.45V244.73h15.26v15.45H262.18Zm0,15.52V260.18h15.26V275.7H262.18Zm0,15.45V275.7h15.26v15.45H262.18Zm0,15.52V291.15h15.26v15.52H262.18Zm0,15.14V306.67h15.26v15.14H262.18Zm15.26-123.26V183h15.18v15.52H277.44Zm0,123.26V306.67h15.18v15.14H277.44Zm15.18,0V337.1H277.44V321.81h15.18Zm0-123.26V183h15.26v15.52H292.62Zm0,123.26V306.67h15.26v15.14H292.62Zm15.26,0V337.1H292.62V321.81h15.26Zm0-123.26V183h14.88v15.52H307.87Zm0,30.66V213.69h14.88v15.52H307.87Zm0,15.52V229.21h14.88v15.52H307.87Zm0,31V260.18h14.88V275.7H307.87Zm0,15.45V275.7h14.88v15.45H307.87Zm0,30.66V306.67h14.88v15.14H307.87Zm14.88,0V337.1H307.87V321.81h14.88Zm0-123.26V183H338v15.52H322.75Zm0,30.66V213.69H338v15.52H322.75Zm0,15.52V229.21H338v15.52H322.75Zm0,31V260.18H338V275.7H322.75Zm0,15.45V275.7H338v15.45H322.75Zm0,30.66V306.67H338v15.14H322.75Zm15.26,0V337.1H322.75V321.81H338Zm0-123.26V183h15.26v15.52H338Zm0,30.66V213.69h15.26v15.52H338Zm0,15.52V229.21h15.26v15.52H338Zm0,31V260.18h15.26V275.7H338Zm0,15.45V275.7h15.26v15.45H338Zm0,30.66V306.67h15.26v15.14H338Zm15.26,0V337.1H338V321.81h15.26Zm0-123.26V183h15.18v15.52H353.26Zm0,30.66V213.69h15.18v15.52H353.26Zm0,15.52V229.21h15.18v15.52H353.26Zm0,31V260.18h15.18V275.7H353.26Zm0,15.45V275.7h15.18v15.45H353.26Zm0,30.66V306.67h15.18v15.14H353.26Zm15.18,0V337.1H353.26V321.81h15.18Zm0-123.26V183H383.7v15.52H368.44Zm0,30.66V213.69H383.7v15.52H368.44Zm0,15.52V229.21H383.7v15.52H368.44Zm0,15.45V244.73H383.7v15.45H368.44Zm0,15.52V260.18H383.7V275.7H368.44Zm0,15.45V275.7H383.7v15.45H368.44Zm0,30.66V306.67H383.7v15.14H368.44Zm15.26,0V337.1H368.44V321.81H383.7Zm0-123.26V183h15.18v15.52H383.7Zm0,15.14V198.55h15.18v15.14H383.7Zm0,15.52V213.69h15.18v15.52H383.7Zm0,15.52V229.21h15.18v15.52H383.7Zm0,15.45V244.73h15.18v15.45H383.7Zm0,15.52V260.18h15.18V275.7H383.7Zm0,15.45V275.7h15.18v15.45H383.7Zm0,15.52V291.15h15.18v15.52H383.7Zm0,15.14V306.67h15.18v15.14H383.7Zm15.18,0V337.1H383.7V321.81h15.18Zm0-108.12V198.55h15v15.14h-15Zm0,15.52V213.69h15v15.52h-15Zm0,15.52V229.21h15v15.52h-15Zm0,61.94V291.15h15v15.52h-15Zm0,15.14V306.67h15v15.14h-15Zm15,0V337.1h-15V321.81h15Z" transform="translate(-3.97 -42.41)"/><path class="cls-1" d="M398.88,198.55V183h15.26v15.52H398.88Zm0,15.14V198.55h15.26v15.14H398.88Zm0,15.52V213.69h15.26v15.52H398.88Zm0,15.52V229.21h15.26v15.52H398.88Zm0,15.45V244.73h15.26v15.45H398.88Zm0,15.52V260.18h15.26V275.7H398.88Zm0,15.45V275.7h15.26v15.45H398.88Zm0,15.52V291.15h15.26v15.52H398.88Zm0,15.14V306.67h15.26v15.14H398.88Zm15.26-123.26V183h15.18v15.52H414.13Zm0,123.26V306.67h15.18v15.14H414.13Zm15.18,0V337.1H414.13V321.81h15.18Zm0-123.26V183h15.26v15.52H429.31Zm0,123.26V306.67h15.26v15.14H429.31Zm15.26,0V337.1H429.31V321.81h15.26Zm0-123.26V183h14.88v15.52H444.57Zm0,30.66V213.69h14.88v15.52H444.57Zm0,15.52V229.21h14.88v15.52H444.57Zm0,31V260.18h14.88V275.7H444.57Zm0,15.45V275.7h14.88v15.45H444.57Zm0,15.52V291.15h14.88v15.52H444.57Zm0,15.14V306.67h14.88v15.14H444.57Zm14.88,0V337.1H444.57V321.81h14.88Zm0-123.26V183H474.7v15.52H459.44Zm0,30.66V213.69H474.7v15.52H459.44Zm0,15.52V229.21H474.7v15.52H459.44Zm0,31V260.18H474.7V275.7H459.44Zm0,15.45V275.7H474.7v15.45H459.44Zm0,15.52V291.15H474.7v15.52H459.44Zm0,15.14V306.67H474.7v15.14H459.44Zm15.26,0V337.1H459.44V321.81H474.7Zm0-123.26V183H490v15.52H474.7Zm0,30.66V213.69H490v15.52H474.7Zm0,15.52V229.21H490v15.52H474.7Zm0,31V260.18H490V275.7H474.7Zm0,15.45V275.7H490v15.45H474.7Zm0,15.52V291.15H490v15.52H474.7Zm0,15.14V306.67H490v15.14H474.7ZM490,198.55V183h15.18v15.52H490Zm0,123.26V306.67h15.18v15.14H490Zm15.18,0V337.1H490V321.81h15.18Zm0-123.26V183h15.26v15.52H505.14Zm0,15.14V198.55h15.26v15.14H505.14Zm0,46.49V244.73h15.26v15.45H505.14Zm0,61.63V306.67h15.26v15.14H505.14Zm15.26,0V337.1H505.14V321.81h15.26Zm0-108.12V198.55h15.18v15.14H520.39Zm0,15.52V213.69h15.18v15.52H520.39Zm0,15.52V229.21h15.18v15.52H520.39Zm0,15.45V244.73h15.18v15.45H520.39Zm0,15.52V260.18h15.18V275.7H520.39Zm0,15.45V275.7h15.18v15.45H520.39Zm0,15.52V291.15h15.18v15.52H520.39Zm0,15.14V306.67h15.18v15.14H520.39Zm15.18,0V337.1H520.39V321.81h15.18Zm0-92.6V213.69h15v15.52h-15Zm0,15.52V229.21h15v15.52h-15Zm0,15.45V244.73h15v15.45h-15Zm0,15.52V260.18h15V275.7h-15Zm0,15.45V275.7h15v15.45h-15Zm0,15.52V291.15h15v15.52h-15Zm0,15.14V306.67h15v15.14h-15Zm15,0V337.1h-15V321.81h15Z" transform="translate(-3.97 -42.41)"/><path class="cls-1" d="M535.57,198.55V183h15.26v15.52H535.57Zm0,15.14V198.55h15.26v15.14H535.57Zm0,15.52V213.69h15.26v15.52H535.57Zm0,15.52V229.21h15.26v15.52H535.57Zm0,15.45V244.73h15.26v15.45H535.57Zm0,15.52V260.18h15.26V275.7H535.57Zm0,15.45V275.7h15.26v15.45H535.57Zm0,15.52V291.15h15.26v15.52H535.57Zm0,15.14V306.67h15.26v15.14H535.57Zm15.26-123.26V183H566v15.52H550.83Zm0,123.26V306.67H566v15.14H550.83Zm15.18,0V337.1H550.83V321.81H566Zm0-123.26V183h15.26v15.52H566Zm0,123.26V306.67h15.26v15.14H566Zm15.26,0V337.1H566V321.81h15.26Zm0-123.26V183h14.88v15.52H581.26Zm0,30.66V213.69h14.88v15.52H581.26Zm0,15.52V229.21h14.88v15.52H581.26Zm0,31V260.18h14.88V275.7H581.26Zm0,15.45V275.7h14.88v15.45H581.26Zm0,15.52V291.15h14.88v15.52H581.26Zm0,15.14V306.67h14.88v15.14H581.26Zm14.88,0V337.1H581.26V321.81h14.88Zm0-123.26V183h15.26v15.52H596.14Zm0,30.66V213.69h15.26v15.52H596.14Zm0,15.52V229.21h15.26v15.52H596.14Zm0,31V260.18h15.26V275.7H596.14Zm0,15.45V275.7h15.26v15.45H596.14Zm0,15.52V291.15h15.26v15.52H596.14Zm0,15.14V306.67h15.26v15.14H596.14Zm15.26,0V337.1H596.14V321.81h15.26Zm0-123.26V183h15.26v15.52H611.39Zm0,30.66V213.69h15.26v15.52H611.39Zm0,15.52V229.21h15.26v15.52H611.39Zm0,31V260.18h15.26V275.7H611.39Zm0,15.45V275.7h15.26v15.45H611.39Zm0,15.52V291.15h15.26v15.52H611.39Zm0,15.14V306.67h15.26v15.14H611.39Zm15.26-123.26V183h15.18v15.52H626.65Zm0,123.26V306.67h15.18v15.14H626.65Zm15.18,0V337.1H626.65V321.81h15.18Zm0-123.26V183h15.26v15.52H641.83Zm0,15.14V198.55h15.26v15.14H641.83Zm0,46.49V244.73h15.26v15.45H641.83Zm0,61.63V306.67h15.26v15.14H641.83Zm15.26,0V337.1H641.83V321.81h15.26Zm0-108.12V198.55h15.18v15.14H657.09Zm0,15.52V213.69h15.18v15.52H657.09Zm0,15.52V229.21h15.18v15.52H657.09Zm0,15.45V244.73h15.18v15.45H657.09Zm0,15.52V260.18h15.18V275.7H657.09Zm0,15.45V275.7h15.18v15.45H657.09Zm0,15.52V291.15h15.18v15.52H657.09Zm0,15.14V306.67h15.18v15.14H657.09Zm15.18,0V337.1H657.09V321.81h15.18Zm0-92.6V213.69h15v15.52h-15Zm0,15.52V229.21h15v15.52h-15Zm0,15.45V244.73h15v15.45h-15Zm0,15.52V260.18h15V275.7h-15Zm0,15.45V275.7h15v15.45h-15Zm0,15.52V291.15h15v15.52h-15Zm0,15.14V306.67h15v15.14h-15Zm15,0V337.1h-15V321.81h15Z" transform="translate(-3.97 -42.41)"/><path class="cls-1" d="M672.27,213.69V198.55h15.26v15.14H672.27Zm0,15.52V213.69h15.26v15.52H672.27Zm0,15.52V229.21h15.26v15.52H672.27Zm0,15.45V244.73h15.26v15.45H672.27Zm0,15.52V260.18h15.26V275.7H672.27Zm0,15.45V275.7h15.26v15.45H672.27Zm0,15.52V291.15h15.26v15.52H672.27Zm15.26-108.12V183H702.7v15.52H687.52Zm0,15.14V198.55H702.7v15.14H687.52Zm0,93V291.15H702.7v15.52H687.52Zm0,15.14V306.67H702.7v15.14H687.52ZM702.7,198.55V183H718v15.52H702.7Zm0,123.26V306.67H718v15.14H702.7Zm15.26,0V337.1H702.7V321.81H718Zm0-123.26V183h14.88v15.52H718Zm0,30.66V213.69h14.88v15.52H718Zm0,15.52V229.21h14.88v15.52H718Zm0,15.45V244.73h14.88v15.45H718Zm0,31V275.7h14.88v15.45H718Zm0,30.66V306.67h14.88v15.14H718Zm14.88,0V337.1H718V321.81h14.88Zm0-123.26V183h15.26v15.52H732.83Zm0,30.66V213.69h15.26v15.52H732.83Zm0,15.52V229.21h15.26v15.52H732.83Zm0,31V260.18h15.26V275.7H732.83Zm0,15.45V275.7h15.26v15.45H732.83Zm0,30.66V306.67h15.26v15.14H732.83Zm15.26,0V337.1H732.83V321.81h15.26Zm0-123.26V183h15.26v15.52H748.09Zm0,30.66V213.69h15.26v15.52H748.09Zm0,31V244.73h15.26v15.45H748.09Zm0,15.52V260.18h15.26V275.7H748.09Zm0,15.45V275.7h15.26v15.45H748.09Zm0,30.66V306.67h15.26v15.14H748.09Zm15.26,0V337.1H748.09V321.81h15.26Zm0-123.26V183h15.18v15.52H763.34Zm0,123.26V306.67h15.18v15.14H763.34Zm15.18,0V337.1H763.34V321.81h15.18Zm0-123.26V183h15.26v15.52H778.52Zm0,15.14V198.55h15.26v15.14H778.52Zm0,93V291.15h15.26v15.52H778.52Zm0,15.14V306.67h15.26v15.14H778.52Zm15.26,0V337.1H778.52V321.81h15.26Zm0-108.12V198.55H809v15.14H793.78Zm0,15.52V213.69H809v15.52H793.78Zm0,15.52V229.21H809v15.52H793.78Zm0,15.45V244.73H809v15.45H793.78Zm0,15.52V260.18H809V275.7H793.78Zm0,15.45V275.7H809v15.45H793.78Zm0,15.52V291.15H809v15.52H793.78Zm0,15.14V306.67H809v15.14H793.78Zm15.18,0V337.1H793.78V321.81H809Zm0-92.6V213.69h15v15.52H809Zm0,15.52V229.21h15v15.52H809Zm0,15.45V244.73h15v15.45H809Zm0,15.52V260.18h15V275.7H809Zm0,15.45V275.7h15v15.45H809Zm0,15.52V291.15h15v15.52H809Zm0,15.14V306.67h15v15.14H809Z" transform="translate(-3.97 -42.41)"/><path class="cls-1" d="M809,198.55V183h15.26v15.52H809Zm0,15.14V198.55h15.26v15.14H809Zm0,15.52V213.69h15.26v15.52H809Zm0,15.52V229.21h15.26v15.52H809Zm0,15.45V244.73h15.26v15.45H809Zm0,15.52V260.18h15.26V275.7H809Zm0,15.45V275.7h15.26v15.45H809Zm0,15.52V291.15h15.26v15.52H809Zm0,15.14V306.67h15.26v15.14H809Zm15.26-123.26V183H839.4v15.52H824.22Zm0,123.26V306.67H839.4v15.14H824.22Zm15.18,0V337.1H824.22V321.81H839.4Zm0-123.26V183h15.26v15.52H839.4Zm0,123.26V306.67h15.26v15.14H839.4Zm15.26,0V337.1H839.4V321.81h15.26Zm0-123.26V183h14.88v15.52H854.65Zm0,30.66V213.69h14.88v15.52H854.65Zm0,15.52V229.21h14.88v15.52H854.65Zm0,31V260.18h14.88V275.7H854.65Zm0,15.45V275.7h14.88v15.45H854.65Zm0,15.52V291.15h14.88v15.52H854.65Zm0,15.14V306.67h14.88v15.14H854.65Zm14.88,0V337.1H854.65V321.81h14.88Zm0-123.26V183h15.26v15.52H869.53Zm0,30.66V213.69h15.26v15.52H869.53Zm0,15.52V229.21h15.26v15.52H869.53Zm0,31V260.18h15.26V275.7H869.53Zm0,15.45V275.7h15.26v15.45H869.53Zm0,15.52V291.15h15.26v15.52H869.53Zm0,15.14V306.67h15.26v15.14H869.53Zm15.26,0V337.1H869.53V321.81h15.26Zm0-123.26V183H900v15.52H884.78Zm0,30.66V213.69H900v15.52H884.78Zm0,15.52V229.21H900v15.52H884.78Zm0,31V260.18H900V275.7H884.78Zm0,15.45V275.7H900v15.45H884.78Zm0,15.52V291.15H900v15.52H884.78Zm0,15.14V306.67H900v15.14H884.78ZM900,198.55V183h15.18v15.52H900Zm0,123.26V306.67h15.18v15.14H900Zm15.18,0V337.1H900V321.81h15.18Zm0-123.26V183h15.26v15.52H915.22Zm0,15.14V198.55h15.26v15.14H915.22Zm0,46.49V244.73h15.26v15.45H915.22Zm0,61.63V306.67h15.26v15.14H915.22Zm15.26,0V337.1H915.22V321.81h15.26Zm0-108.12V198.55h15.18v15.14H930.48Zm0,15.52V213.69h15.18v15.52H930.48Zm0,15.52V229.21h15.18v15.52H930.48Zm0,15.45V244.73h15.18v15.45H930.48Zm0,15.52V260.18h15.18V275.7H930.48Zm0,15.45V275.7h15.18v15.45H930.48Zm0,15.52V291.15h15.18v15.52H930.48Zm0,15.14V306.67h15.18v15.14H930.48Zm15.18,0V337.1H930.48V321.81h15.18Zm0-92.6V213.69h15v15.52h-15Zm0,15.52V229.21h15v15.52h-15Zm0,15.45V244.73h15v15.45h-15Zm0,15.52V260.18h15V275.7h-15Zm0,15.45V275.7h15v15.45h-15Zm0,15.52V291.15h15v15.52h-15Zm0,15.14V306.67h15v15.14h-15Zm15,0V337.1h-15V321.81h15Z" transform="translate(-3.97 -42.41)"/><path class="cls-1" d="M664.79,119.57V104.12H680v15.45H664.79Zm0,15.52V119.57H680v15.52H664.79Zm0,15.45V135.09H680v15.45H664.79Zm0,15.52V150.54H680v15.52H664.79ZM680,104.12V88.6h15.18v15.52H680Zm0,15.45V104.12h15.18v15.45H680Zm0,46.49V150.54h15.18v15.52H680Zm0,15.14V166.06h15.18V181.2H680Zm15.18-92.6V73.08h15.26V88.6H695.23Zm0,15.52V88.6h15.26v15.52H695.23Zm0,61.94V150.54h15.26v15.52H695.23Zm0,15.14V166.06h15.26V181.2H695.23ZM710.48,73.08V57.94h14.88V73.08H710.48Zm0,15.52V73.08h14.88V88.6H710.48Zm0,46.49V119.57h14.88v15.52H710.48Zm0,31V150.54h14.88v15.52H710.48Zm0,15.14V166.06h14.88V181.2H710.48ZM725.36,57.94V42.41h15.26V57.94H725.36Zm0,15.14V57.94h15.26V73.08H725.36Zm0,46.49V104.12h15.26v15.45H725.36Zm0,15.52V119.57h15.26v15.52H725.36Zm0,31V150.54h15.26v15.52H725.36Zm0,15.14V166.06h15.26V181.2H725.36ZM740.61,57.94V42.41h15.26V57.94H740.61Zm0,123.26V166.06h15.26V181.2H740.61Zm15.26,0v15.29H740.61V181.2h15.26Zm0-123.26V42.41H771V57.94H755.87Zm0,123.26V166.06H771V181.2H755.87Zm15.18,0v15.29H755.87V181.2H771Zm0-123.26V42.41H786.3V57.94H771Zm0,15.14V57.94H786.3V73.08H771Zm0,15.52V73.08H786.3V88.6H771Zm0,15.52V88.6H786.3v15.52H771Zm0,15.45V104.12H786.3v15.45H771Zm0,15.52V119.57H786.3v15.52H771Zm0,31V150.54H786.3v15.52H771Zm0,15.14V166.06H786.3V181.2H771Zm15.26,0v15.29H771V181.2H786.3Zm0-108.12V57.94h15.18V73.08H786.3Zm0,15.52V73.08h15.18V88.6H786.3Zm0,15.52V88.6h15.18v15.52H786.3Zm0,15.45V104.12h15.18v15.45H786.3Zm0,15.52V119.57h15.18v15.52H786.3Zm0,15.45V135.09h15.18v15.45H786.3Zm0,15.52V150.54h15.18v15.52H786.3Zm0,15.14V166.06h15.18V181.2H786.3Zm15.18,0v15.29H786.3V181.2h15.18Zm0-30.66V135.09h15v15.45h-15Zm0,15.52V150.54h15v15.52h-15Zm0,15.14V166.06h15V181.2h-15Z" transform="translate(-3.97 -42.41)"/><path class="cls-1" d="M664.79,414.26V398.81H680v15.45H664.79Zm0,15.52V414.26H680v15.52H664.79Zm0,15.45V429.78H680v15.45H664.79Zm0,15.52V445.22H680v15.52H664.79ZM680,398.81V383.29h15.18v15.52H680Zm0,15.45V398.81h15.18v15.45H680Zm0,46.49V445.22h15.18v15.52H680Zm0,15.14V460.75h15.18v15.14H680Zm15.18-92.6V367.76h15.26v15.52H695.23Zm0,15.52V383.29h15.26v15.52H695.23Zm0,61.94V445.22h15.26v15.52H695.23Zm0,15.14V460.75h15.26v15.14H695.23Zm15.26-108.12V352.62h14.88v15.14H710.48Zm0,15.52V367.76h14.88v15.52H710.48Zm0,46.49V414.26h14.88v15.52H710.48Zm0,31V445.22h14.88v15.52H710.48Zm0,15.14V460.75h14.88v15.14H710.48Zm14.88-123.26V337.1h15.26v15.52H725.36Zm0,15.14V352.62h15.26v15.14H725.36Zm0,46.49V398.81h15.26v15.45H725.36Zm0,15.52V414.26h15.26v15.52H725.36Zm0,31V445.22h15.26v15.52H725.36Zm0,15.14V460.75h15.26v15.14H725.36Zm15.26-123.26V337.1h15.26v15.52H740.61Zm0,123.26V460.75h15.26v15.14H740.61Zm15.26,0v15.29H740.61V475.89h15.26Zm0-123.26V337.1H771v15.52H755.87Zm0,123.26V460.75H771v15.14H755.87Zm15.18,0v15.29H755.87V475.89H771Zm0-123.26V337.1H786.3v15.52H771Zm0,15.14V352.62H786.3v15.14H771Zm0,15.52V367.76H786.3v15.52H771Zm0,15.52V383.29H786.3v15.52H771Zm0,15.45V398.81H786.3v15.45H771Zm0,15.52V414.26H786.3v15.52H771Zm0,31V445.22H786.3v15.52H771Zm0,15.14V460.75H786.3v15.14H771Zm15.26,0v15.29H771V475.89H786.3Zm0-108.12V352.62h15.18v15.14H786.3Zm0,15.52V367.76h15.18v15.52H786.3Zm0,15.52V383.29h15.18v15.52H786.3Zm0,15.45V398.81h15.18v15.45H786.3Zm0,15.52V414.26h15.18v15.52H786.3Zm0,15.45V429.78h15.18v15.45H786.3Zm0,15.52V445.22h15.18v15.52H786.3Zm0,15.14V460.75h15.18v15.14H786.3Zm15.18,0v15.29H786.3V475.89h15.18Zm0-30.66V429.78h15v15.45h-15Zm0,15.52V445.22h15v15.52h-15Zm0,15.14V460.75h15v15.14h-15Z" transform="translate(-3.97 -42.41)"/></svg>