<svg id="Calque_1" data-name="Calque 1" xmlns="http://www.w3.org/2000/svg" viewBox="0 0 342.97 184.46"><defs><style>.cls-1{fill:#7b7b7b;}</style></defs><title>logo_site</title><path class="cls-1" d="M141.43,310.79v-5.37h5.37v5.37h-5.37Zm0,5.24v-5.24h5.37V316h-5.37Zm0,5.37V316h5.37v5.37h-5.37Zm5.37-10.62v-5.37h5.35v5.37H146.8Zm0,10.62V316h5.35v5.37H146.8Zm5.35-10.62v-5.37h5.37v5.37h-5.37Zm0,10.62V316h5.37v5.37h-5.37Zm0,5.37V321.4h5.37v5.37h-5.37Zm0,5.35v-5.35h5.37v5.35h-5.37Zm0,5.37v-5.37h5.37v5.37h-5.37Zm0,5.35V337.5h5.37v5.35h-5.37Zm0,5.37v-5.37h5.37v5.37h-5.37Zm0,5.24v-5.24h5.37v5.24h-5.37Zm5.37-42.68v-5.37h5.24v5.37h-5.24Zm0,42.68v-5.24h5.24v5.24h-5.24Zm5.24,0v5.29h-5.24v-5.29h5.24Zm0-42.68v-5.37h5.37v5.37h-5.37Zm0,42.68v-5.24h5.37v5.24h-5.37Zm5.37,0v5.29h-5.37v-5.29h5.37Zm0-42.68v-5.37h5.37v5.37h-5.37Zm0,10.62V316h5.37v5.37h-5.37Zm0,5.37V321.4h5.37v5.37h-5.37Zm0,5.35v-5.35h5.37v5.35h-5.37Zm0,5.37v-5.37h5.37v5.37h-5.37Zm0,5.35V337.5h5.37v5.35h-5.37Zm0,5.37v-5.37h5.37v5.37h-5.37Zm0,5.24v-5.24h5.37v5.24h-5.37Zm5.37,0v5.29h-5.37v-5.29h5.37Zm0-42.68v-5.37h5.35v5.37h-5.35Zm0,10.62V316h5.35v5.37h-5.35Zm0,5.37V321.4h5.35v5.37h-5.35Zm0,5.35v-5.35h5.35v5.35h-5.35Zm0,5.37v-5.37h5.35v5.37h-5.35Zm0,5.35V337.5h5.35v5.35h-5.35Zm0,5.37v-5.37h5.35v5.37h-5.35Zm0,5.24v-5.24h5.35v5.24h-5.35Zm5.35,0v5.29h-5.35v-5.29h5.35Zm0-42.68v-5.37h5.37v5.37h-5.37Zm0,5.24v-5.24h5.37V316h-5.37Zm0,5.37V316h5.37v5.37h-5.37Zm0,5.37V321.4h5.37v5.37h-5.37ZM184.24,316v-5.24h5.35V316h-5.35Zm0,5.37V316h5.35v5.37h-5.35Zm0,5.37V321.4h5.35v5.37h-5.35Z" transform="translate(-141.43 -305.41)"/><path class="cls-1" d="M184.24,342.85V337.5h5.37v5.35h-5.37Zm0,5.37v-5.37h5.37v5.37h-5.37Zm0,5.24v-5.24h5.37v5.24h-5.37Zm5.37-10.62V337.5H195v5.35h-5.35Zm0,10.62v-5.24H195v5.24h-5.35Zm5.35,0v5.29h-5.35v-5.29H195Zm0-10.62V337.5h5.37v5.35H195Zm0,10.62v-5.24h5.37v5.24H195Zm5.37,0v5.29H195v-5.29h5.37Zm0-10.62V337.5h5.24v5.35h-5.24Zm0,10.62v-5.24h5.24v5.24h-5.24Zm5.24,0v5.29h-5.24v-5.29h5.24Zm0-10.62V337.5H211v5.35h-5.37Zm0,10.62v-5.24H211v5.24h-5.37Zm5.37,0v5.29h-5.37v-5.29H211Zm0-10.62V337.5h5.37v5.35H211Zm0,10.62v-5.24h5.37v5.24H211Zm5.37,0v5.29H211v-5.29h5.37Zm0-10.62V337.5h5.35v5.35h-5.35Zm0,10.62v-5.24h5.35v5.24h-5.35Zm5.35,0v5.29h-5.35v-5.29h5.35Zm0-10.62V337.5h5.38v5.35h-5.38Zm0,10.62v-5.24h5.38v5.24h-5.38Zm5.38,0v5.29h-5.38v-5.29h5.38Zm0-10.62V337.5h5.35v5.35h-5.35Zm0,5.37v-5.37h5.35v5.37h-5.35Zm0,5.24v-5.24h5.35v5.24h-5.35Zm5.35,0v5.29h-5.35v-5.29h5.35Zm0-5.24v-5.37h5.27v5.37H232.4Zm0,5.24v-5.24h5.27v5.24H232.4Zm5.27,0v5.29H232.4v-5.29h5.27Z" transform="translate(-141.43 -305.41)"/><path class="cls-1" d="M232.19,310.79v-5.37h5.37v5.37h-5.37Zm0,5.24v-5.24h5.37V316h-5.37Zm0,5.37V316h5.37v5.37h-5.37Zm0,5.37V321.4h5.37v5.37h-5.37Zm0,5.35v-5.35h5.37v5.35h-5.37Zm0,5.37v-5.37h5.37v5.37h-5.37Zm0,5.35V337.5h5.37v5.35h-5.37Zm0,5.37v-5.37h5.37v5.37h-5.37Zm0,5.24v-5.24h5.37v5.24h-5.37Zm5.37-42.68v-5.37h5.35v5.37h-5.35Zm0,42.68v-5.24h5.35v5.24h-5.35Zm5.35,0v5.29h-5.35v-5.29h5.35Zm0-42.68v-5.37h5.37v5.37h-5.37Zm0,42.68v-5.24h5.37v5.24h-5.37Zm5.37,0v5.29h-5.37v-5.29h5.37Zm0-42.68v-5.37h5.24v5.37h-5.24Zm0,10.62V316h5.24v5.37h-5.24Zm0,5.37V321.4h5.24v5.37h-5.24Zm0,10.72v-5.37h5.24v5.37h-5.24Zm0,5.35V337.5h5.24v5.35h-5.24Zm0,10.62v-5.24h5.24v5.24h-5.24Zm5.24,0v5.29h-5.24v-5.29h5.24Zm0-42.68v-5.37h5.37v5.37h-5.37Zm0,10.62V316h5.37v5.37h-5.37Zm0,5.37V321.4h5.37v5.37h-5.37Zm0,10.72v-5.37h5.37v5.37h-5.37Zm0,5.35V337.5h5.37v5.35h-5.37Zm0,10.62v-5.24h5.37v5.24h-5.37Zm5.37,0v5.29h-5.37v-5.29h5.37Zm0-42.68v-5.37h5.37v5.37H258.9Zm0,10.62V316h5.37v5.37H258.9Zm0,5.37V321.4h5.37v5.37H258.9Zm0,10.72v-5.37h5.37v5.37H258.9Zm0,5.35V337.5h5.37v5.35H258.9Zm0,10.62v-5.24h5.37v5.24H258.9Zm5.37,0v5.29H258.9v-5.29h5.37Zm0-42.68v-5.37h5.35v5.37h-5.35Zm0,10.62V316h5.35v5.37h-5.35Zm0,5.37V321.4h5.35v5.37h-5.35Zm0,10.72v-5.37h5.35v5.37h-5.35Zm0,5.35V337.5h5.35v5.35h-5.35Zm0,10.62v-5.24h5.35v5.24h-5.35Zm5.35,0v5.29h-5.35v-5.29h5.35Zm0-42.68v-5.37H275v5.37h-5.37Zm0,10.62V316H275v5.37h-5.37Zm0,5.37V321.4H275v5.37h-5.37Zm0,5.35v-5.35H275v5.35h-5.37Zm0,5.37v-5.37H275v5.37h-5.37Zm0,5.35V337.5H275v5.35h-5.37Zm0,10.62v-5.24H275v5.24h-5.37Zm5.37,0v5.29h-5.37v-5.29H275Zm0-42.68v-5.37h5.35v5.37H275Zm0,5.24v-5.24h5.35V316H275Zm0,5.37V316h5.35v5.37H275Zm0,5.37V321.4h5.35v5.37H275Zm0,5.35v-5.35h5.35v5.35H275Zm0,5.37v-5.37h5.35v5.37H275Zm0,5.35V337.5h5.35v5.35H275Zm0,5.37v-5.37h5.35v5.37H275Zm0,5.24v-5.24h5.35v5.24H275Zm5.35,0v5.29H275v-5.29h5.35Zm0-37.44v-5.24h5.27V316h-5.27Zm0,5.37V316h5.27v5.37h-5.27Zm0,5.37V321.4h5.27v5.37h-5.27Zm0,21.45v-5.37h5.27v5.37h-5.27Zm0,5.24v-5.24h5.27v5.24h-5.27Zm5.27,0v5.29h-5.27v-5.29h5.27Z" transform="translate(-141.43 -305.41)"/><path class="cls-1" d="M280.2,310.79v-5.37h5.37v5.37H280.2Zm0,5.24v-5.24h5.37V316H280.2Zm0,5.37V316h5.37v5.37H280.2Zm0,5.37V321.4h5.37v5.37H280.2Zm0,5.35v-5.35h5.37v5.35H280.2Zm0,5.37v-5.37h5.37v5.37H280.2Zm0,5.35V337.5h5.37v5.35H280.2Zm0,5.37v-5.37h5.37v5.37H280.2Zm0,5.24v-5.24h5.37v5.24H280.2Zm5.37-42.68v-5.37h5.35v5.37h-5.35Zm0,42.68v-5.24h5.35v5.24h-5.35Zm5.35,0v5.29h-5.35v-5.29h5.35Zm0-42.68v-5.37h5.37v5.37h-5.37Zm0,42.68v-5.24h5.37v5.24h-5.37Zm5.37,0v5.29h-5.37v-5.29h5.37Zm0-42.68v-5.37h5.24v5.37H296.3Zm0,10.62V316h5.24v5.37H296.3Zm0,5.37V321.4h5.24v5.37H296.3Zm0,10.72v-5.37h5.24v5.37H296.3Zm0,5.35V337.5h5.24v5.35H296.3Zm0,5.37v-5.37h5.24v5.37H296.3Zm0,5.24v-5.24h5.24v5.24H296.3Zm5.24,0v5.29H296.3v-5.29h5.24Zm0-42.68v-5.37h5.37v5.37h-5.37Zm0,10.62V316h5.37v5.37h-5.37Zm0,5.37V321.4h5.37v5.37h-5.37Zm0,10.72v-5.37h5.37v5.37h-5.37Zm0,5.35V337.5h5.37v5.35h-5.37Zm0,5.37v-5.37h5.37v5.37h-5.37Zm0,5.24v-5.24h5.37v5.24h-5.37Zm5.37,0v5.29h-5.37v-5.29h5.37Zm0-42.68v-5.37h5.37v5.37h-5.37Zm0,10.62V316h5.37v5.37h-5.37Zm0,5.37V321.4h5.37v5.37h-5.37Zm0,10.72v-5.37h5.37v5.37h-5.37Zm0,5.35V337.5h5.37v5.35h-5.37Zm0,5.37v-5.37h5.37v5.37h-5.37Zm0,5.24v-5.24h5.37v5.24h-5.37Zm5.37-42.68v-5.37h5.35v5.37h-5.35Zm0,42.68v-5.24h5.35v5.24h-5.35Zm5.35,0v5.29h-5.35v-5.29h5.35Zm0-42.68v-5.37H323v5.37h-5.37Zm0,5.24v-5.24H323V316h-5.37Zm0,16.1v-5.35H323v5.35h-5.37Zm0,21.34v-5.24H323v5.24h-5.37Zm5.37,0v5.29h-5.37v-5.29H323ZM323,316v-5.24h5.35V316H323Zm0,5.37V316h5.35v5.37H323Zm0,5.37V321.4h5.35v5.37H323Zm0,5.35v-5.35h5.35v5.35H323Zm0,5.37v-5.37h5.35v5.37H323Zm0,5.35V337.5h5.35v5.35H323Zm0,5.37v-5.37h5.35v5.37H323Zm0,5.24v-5.24h5.35v5.24H323Zm5.35,0v5.29H323v-5.29h5.35Zm0-32.06V316h5.27v5.37h-5.27Zm0,5.37V321.4h5.27v5.37h-5.27Zm0,5.35v-5.35h5.27v5.35h-5.27Zm0,5.37v-5.37h5.27v5.37h-5.27Zm0,5.35V337.5h5.27v5.35h-5.27Zm0,5.37v-5.37h5.27v5.37h-5.27Zm0,5.24v-5.24h5.27v5.24h-5.27Zm5.27,0v5.29h-5.27v-5.29h5.27Z" transform="translate(-141.43 -305.41)"/><path class="cls-1" d="M328.21,310.79v-5.37h5.37v5.37h-5.37Zm0,5.24v-5.24h5.37V316h-5.37Zm0,5.37V316h5.37v5.37h-5.37Zm0,5.37V321.4h5.37v5.37h-5.37Zm0,5.35v-5.35h5.37v5.35h-5.37Zm0,5.37v-5.37h5.37v5.37h-5.37Zm0,5.35V337.5h5.37v5.35h-5.37Zm0,5.37v-5.37h5.37v5.37h-5.37Zm0,5.24v-5.24h5.37v5.24h-5.37Zm5.37-42.68v-5.37h5.35v5.37h-5.35Zm0,42.68v-5.24h5.35v5.24h-5.35Zm5.35,0v5.29h-5.35v-5.29h5.35Zm0-42.68v-5.37h5.37v5.37h-5.37Zm0,42.68v-5.24h5.37v5.24h-5.37Zm5.37,0v5.29h-5.37v-5.29h5.37Zm0-42.68v-5.37h5.24v5.37h-5.24Zm0,10.62V316h5.24v5.37h-5.24Zm0,5.37V321.4h5.24v5.37h-5.24Zm0,10.72v-5.37h5.24v5.37h-5.24Zm0,5.35V337.5h5.24v5.35h-5.24Zm0,5.37v-5.37h5.24v5.37h-5.24Zm0,5.24v-5.24h5.24v5.24h-5.24Zm5.24,0v5.29h-5.24v-5.29h5.24Zm0-42.68v-5.37h5.37v5.37h-5.37Zm0,10.62V316h5.37v5.37h-5.37Zm0,5.37V321.4h5.37v5.37h-5.37Zm0,10.72v-5.37h5.37v5.37h-5.37Zm0,5.35V337.5h5.37v5.35h-5.37Zm0,5.37v-5.37h5.37v5.37h-5.37Zm0,5.24v-5.24h5.37v5.24h-5.37Zm5.37,0v5.29h-5.37v-5.29h5.37Zm0-42.68v-5.37h5.37v5.37h-5.37Zm0,10.62V316h5.37v5.37h-5.37Zm0,5.37V321.4h5.37v5.37h-5.37Zm0,10.72v-5.37h5.37v5.37h-5.37Zm0,5.35V337.5h5.37v5.35h-5.37Zm0,5.37v-5.37h5.37v5.37h-5.37Zm0,5.24v-5.24h5.37v5.24h-5.37Zm5.37-42.68v-5.37h5.35v5.37H360.3Zm0,42.68v-5.24h5.35v5.24H360.3Zm5.35,0v5.29H360.3v-5.29h5.35Zm0-42.68v-5.37H371v5.37h-5.37Zm0,5.24v-5.24H371V316h-5.37Zm0,16.1v-5.35H371v5.35h-5.37Zm0,21.34v-5.24H371v5.24h-5.37Zm5.37,0v5.29h-5.37v-5.29H371ZM371,316v-5.24h5.35V316H371Zm0,5.37V316h5.35v5.37H371Zm0,5.37V321.4h5.35v5.37H371Zm0,5.35v-5.35h5.35v5.35H371Zm0,5.37v-5.37h5.35v5.37H371Zm0,5.35V337.5h5.35v5.35H371Zm0,5.37v-5.37h5.35v5.37H371Zm0,5.24v-5.24h5.35v5.24H371Zm5.35,0v5.29H371v-5.29h5.35Zm0-32.06V316h5.27v5.37h-5.27Zm0,5.37V321.4h5.27v5.37h-5.27Zm0,5.35v-5.35h5.27v5.35h-5.27Zm0,5.37v-5.37h5.27v5.37h-5.27Zm0,5.35V337.5h5.27v5.35h-5.27Zm0,5.37v-5.37h5.27v5.37h-5.27Zm0,5.24v-5.24h5.27v5.24h-5.27Zm5.27,0v5.29h-5.27v-5.29h5.27Z" transform="translate(-141.43 -305.41)"/><path class="cls-1" d="M376.24,316v-5.24h5.37V316h-5.37Zm0,5.37V316h5.37v5.37h-5.37Zm0,5.37V321.4h5.37v5.37h-5.37Zm0,5.35v-5.35h5.37v5.35h-5.37Zm0,5.37v-5.37h5.37v5.37h-5.37Zm0,5.35V337.5h5.37v5.35h-5.37Zm0,5.37v-5.37h5.37v5.37h-5.37Zm5.37-37.44v-5.37H387v5.37h-5.35Zm0,5.24v-5.24H387V316h-5.35Zm0,32.2v-5.37H387v5.37h-5.35Zm0,5.24v-5.24H387v5.24h-5.35ZM387,310.79v-5.37h5.37v5.37H387Zm0,42.68v-5.24h5.37v5.24H387Zm5.37,0v5.29H387v-5.29h5.37Zm0-42.68v-5.37h5.24v5.37h-5.24Zm0,10.62V316h5.24v5.37h-5.24Zm0,5.37V321.4h5.24v5.37h-5.24Zm0,5.35v-5.35h5.24v5.35h-5.24Zm0,5.37v-5.37h5.24v5.37h-5.24Zm0,5.35V337.5h5.24v5.35h-5.24Zm0,10.62v-5.24h5.24v5.24h-5.24Zm5.24,0v5.29h-5.24v-5.29h5.24Zm0-42.68v-5.37H403v5.37h-5.37Zm0,10.62V316H403v5.37h-5.37Zm0,5.37V321.4H403v5.37h-5.37Zm0,5.35v-5.35H403v5.35h-5.37Zm0,5.37v-5.37H403v5.37h-5.37Zm0,5.35V337.5H403v5.35h-5.37Zm0,10.62v-5.24H403v5.24h-5.37Zm5.37,0v5.29h-5.37v-5.29H403Zm0-42.68v-5.37h5.37v5.37H403Zm0,10.62V316h5.37v5.37H403Zm0,5.37V321.4h5.37v5.37H403Zm0,5.35v-5.35h5.37v5.35H403Zm0,5.37v-5.37h5.37v5.37H403Zm0,5.35V337.5h5.37v5.35H403Zm0,10.62v-5.24h5.37v5.24H403Zm5.37,0v5.29H403v-5.29h5.37Zm0-42.68v-5.37h5.35v5.37h-5.35Zm0,42.68v-5.24h5.35v5.24h-5.35Zm5.35,0v5.29h-5.35v-5.29h5.35Zm0-42.68v-5.37h5.37v5.37h-5.37Zm0,5.24v-5.24h5.37V316h-5.37Zm0,32.2v-5.37h5.37v5.37h-5.37Zm0,5.24v-5.24h5.37v5.24h-5.37Zm5.37,0v5.29h-5.37v-5.29h5.37Zm0-37.44v-5.24h5.35V316h-5.35Zm0,5.37V316h5.35v5.37h-5.35Zm0,5.37V321.4h5.35v5.37h-5.35Zm0,5.35v-5.35h5.35v5.35h-5.35Zm0,5.37v-5.37h5.35v5.37h-5.35Zm0,5.35V337.5h5.35v5.35h-5.35Zm0,5.37v-5.37h5.35v5.37h-5.35Zm0,5.24v-5.24h5.35v5.24h-5.35Zm5.35,0v5.29h-5.35v-5.29h5.35Zm0-32.06V316h5.27v5.37H424.4Zm0,5.37V321.4h5.27v5.37H424.4Zm0,5.35v-5.35h5.27v5.35H424.4Zm0,5.37v-5.37h5.27v5.37H424.4Zm0,5.35V337.5h5.27v5.35H424.4Zm0,5.37v-5.37h5.27v5.37H424.4Zm0,5.24v-5.24h5.27v5.24H424.4Z" transform="translate(-141.43 -305.41)"/><path class="cls-1" d="M429.67,310.79v-5.37H435v5.37h-5.37Zm0,5.24v-5.24H435V316h-5.37Zm0,5.37V316H435v5.37h-5.37Zm0,5.37V321.4H435v5.37h-5.37Zm0,5.35v-5.35H435v5.35h-5.37Zm0,5.37v-5.37H435v5.37h-5.37Zm0,5.35V337.5H435v5.35h-5.37Zm0,5.37v-5.37H435v5.37h-5.37Zm0,5.24v-5.24H435v5.24h-5.37ZM435,310.79v-5.37h5.35v5.37H435Zm0,42.68v-5.24h5.35v5.24H435Zm5.35,0v5.29H435v-5.29h5.35Zm0-42.68v-5.37h5.37v5.37h-5.37Zm0,42.68v-5.24h5.37v5.24h-5.37Zm5.37,0v5.29h-5.37v-5.29h5.37Zm0-42.68v-5.37H451v5.37h-5.24Zm0,10.62V316H451v5.37h-5.24Zm0,5.37V321.4H451v5.37h-5.24Zm0,10.72v-5.37H451v5.37h-5.24Zm0,5.35V337.5H451v5.35h-5.24Zm0,5.37v-5.37H451v5.37h-5.24Zm0,5.24v-5.24H451v5.24h-5.24Zm5.24,0v5.29h-5.24v-5.29H451Zm0-42.68v-5.37h5.37v5.37H451Zm0,10.62V316h5.37v5.37H451Zm0,5.37V321.4h5.37v5.37H451Zm0,10.72v-5.37h5.37v5.37H451Zm0,5.35V337.5h5.37v5.35H451Zm0,5.37v-5.37h5.37v5.37H451Zm0,5.24v-5.24h5.37v5.24H451Zm5.37,0v5.29H451v-5.29h5.37Zm0-42.68v-5.37h5.37v5.37h-5.37Zm0,10.62V316h5.37v5.37h-5.37Zm0,5.37V321.4h5.37v5.37h-5.37Zm0,10.72v-5.37h5.37v5.37h-5.37Zm0,5.35V337.5h5.37v5.35h-5.37Zm0,5.37v-5.37h5.37v5.37h-5.37Zm0,5.24v-5.24h5.37v5.24h-5.37Zm5.37-42.68v-5.37h5.35v5.37h-5.35Zm0,42.68v-5.24h5.35v5.24h-5.35Zm5.35,0v5.29h-5.35v-5.29h5.35Zm0-42.68v-5.37h5.37v5.37h-5.37Zm0,5.24v-5.24h5.37V316h-5.37Zm0,16.1v-5.35h5.37v5.35h-5.37Zm0,21.34v-5.24h5.37v5.24h-5.37Zm5.37,0v5.29h-5.37v-5.29h5.37Zm0-37.44v-5.24h5.35V316h-5.35Zm0,5.37V316h5.35v5.37h-5.35Zm0,5.37V321.4h5.35v5.37h-5.35Zm0,5.35v-5.35h5.35v5.35h-5.35Zm0,5.37v-5.37h5.35v5.37h-5.35Zm0,5.35V337.5h5.35v5.35h-5.35Zm0,5.37v-5.37h5.35v5.37h-5.35Zm0,5.24v-5.24h5.35v5.24h-5.35Zm5.35,0v5.29h-5.35v-5.29h5.35Zm0-32.06V316h5.27v5.37h-5.27Zm0,5.37V321.4h5.27v5.37h-5.27Zm0,5.35v-5.35h5.27v5.35h-5.27Zm0,5.37v-5.37h5.27v5.37h-5.27Zm0,5.35V337.5h5.27v5.35h-5.27Zm0,5.37v-5.37h5.27v5.37h-5.27Zm0,5.24v-5.24h5.27v5.24h-5.27Zm5.27,0v5.29h-5.27v-5.29h5.27Z" transform="translate(-141.43 -305.41)"/><path class="cls-1" d="M146.26,426.68V414H159v12.69H146.26Zm0,12.75V426.68H159v12.75H146.26Zm0,12.69V439.43H159v12.69H146.26Zm0,12.75V452.12H159v12.75H146.26ZM159,414V401.23h12.69V414H159Zm0,12.69V414h12.69v12.69H159Zm0,38.2V452.12h12.69v12.75H159Zm0,12.44V464.87h12.69v12.44H159Zm12.69-76.07V388.48h12.75v12.75H171.71Zm0,12.75V401.23h12.75V414H171.71Zm0,50.89V452.12h12.75v12.75H171.71Zm0,12.44V464.87h12.75v12.44H171.71Zm12.75-88.83V376H196.9v12.44H184.46Zm0,12.75V388.48H196.9v12.75H184.46Zm0,38.2V426.68H196.9v12.75H184.46Zm0,25.44V452.12H196.9v12.75H184.46Zm0,12.44V464.87H196.9v12.44H184.46ZM196.9,376V363.29h12.75V376H196.9Zm0,12.44V376h12.75v12.44H196.9Zm0,38.2V414h12.75v12.69H196.9Zm0,12.75V426.68h12.75v12.75H196.9Zm0,25.44V452.12h12.75v12.75H196.9Zm0,12.44V464.87h12.75v12.44H196.9ZM209.65,376V363.29H222.4V376H209.65Zm0,101.26V464.87H222.4v12.44H209.65Zm12.75,0v12.56H209.65V477.31H222.4Zm0-101.26V363.29h12.69V376H222.4Zm0,101.26V464.87h12.69v12.44H222.4Zm12.69,0v12.56H222.4V477.31h12.69Zm0-101.26V363.29h12.75V376H235.09Zm0,12.44V376h12.75v12.44H235.09Zm0,12.75V388.48h12.75v12.75H235.09Zm0,12.75V401.23h12.75V414H235.09Zm0,12.69V414h12.75v12.69H235.09Zm0,12.75V426.68h12.75v12.75H235.09Zm0,25.44V452.12h12.75v12.75H235.09Zm0,12.44V464.87h12.75v12.44H235.09Zm12.75,0v12.56H235.09V477.31h12.75Zm0-88.83V376h12.69v12.44H247.85Zm0,12.75V388.48h12.69v12.75H247.85Zm0,12.75V401.23h12.69V414H247.85Zm0,12.69V414h12.69v12.69H247.85Zm0,12.75V426.68h12.69v12.75H247.85Zm0,12.69V439.43h12.69v12.69H247.85Zm0,12.75V452.12h12.69v12.75H247.85Zm0,12.44V464.87h12.69v12.44H247.85Zm12.69,0v12.56H247.85V477.31h12.69Zm0-25.19V439.43H273v12.69h-12.5Zm0,12.75V452.12H273v12.75h-12.5Zm0,12.44V464.87H273v12.44h-12.5Z" transform="translate(-141.43 -305.41)"/><path class="cls-1" d="M257.89,388.48V376h12.75v12.44H257.89Zm0,12.75V388.48h12.75v12.75H257.89Zm0,12.75V401.23h12.75V414H257.89Zm0,12.69V414h12.75v12.69H257.89Zm0,12.75V426.68h12.75v12.75H257.89Zm0,12.69V439.43h12.75v12.69H257.89Zm0,12.75V452.12h12.75v12.75H257.89ZM270.65,376V363.29h12.69V376H270.65Zm0,12.44V376h12.69v12.44H270.65Zm0,76.39V452.12h12.69v12.75H270.65Zm0,12.44V464.87h12.69v12.44H270.65ZM283.34,376V363.29h12.75V376H283.34Zm0,101.26V464.87h12.75v12.44H283.34Zm12.75,0v12.56H283.34V477.31h12.75Zm0-101.26V363.29h12.44V376H296.09Zm0,25.19V388.48h12.44v12.75H296.09Zm0,12.75V401.23h12.44V414H296.09Zm0,12.69V414h12.44v12.69H296.09Zm0,25.44V439.43h12.44v12.69H296.09Zm0,25.19V464.87h12.44v12.44H296.09Zm12.44,0v12.56H296.09V477.31h12.44Zm0-101.26V363.29h12.75V376H308.53Zm0,25.19V388.48h12.75v12.75H308.53Zm0,12.75V401.23h12.75V414H308.53Zm0,25.44V426.68h12.75v12.75H308.53Zm0,12.69V439.43h12.75v12.69H308.53Zm0,25.19V464.87h12.75v12.44H308.53Zm12.75,0v12.56H308.53V477.31h12.75Zm0-101.26V363.29H334V376H321.28Zm0,25.19V388.48H334v12.75H321.28Zm0,25.44V414H334v12.69H321.28Zm0,12.75V426.68H334v12.75H321.28Zm0,12.69V439.43H334v12.69H321.28Zm0,25.19V464.87H334v12.44H321.28Zm12.75,0v12.56H321.28V477.31H334ZM334,376V363.29h12.69V376H334Zm0,101.26V464.87h12.69v12.44H334Zm12.69,0v12.56H334V477.31h12.69Zm0-101.26V363.29h12.75V376H346.72Zm0,12.44V376h12.75v12.44H346.72Zm0,76.39V452.12h12.75v12.75H346.72Zm0,12.44V464.87h12.75v12.44H346.72Zm12.75-88.83V376h12.69v12.44H359.48Zm0,12.75V388.48h12.69v12.75H359.48Zm0,12.75V401.23h12.69V414H359.48Zm0,12.69V414h12.69v12.69H359.48Zm0,12.75V426.68h12.69v12.75H359.48Zm0,12.69V439.43h12.69v12.69H359.48Zm0,12.75V452.12h12.69v12.75H359.48Zm0,12.44V464.87h12.69v12.44H359.48Zm12.69-76.07V388.48h12.5v12.75h-12.5Zm0,12.75V401.23h12.5V414h-12.5Zm0,12.69V414h12.5v12.69h-12.5Zm0,12.75V426.68h12.5v12.75h-12.5Zm0,12.69V439.43h12.5v12.69h-12.5Zm0,12.75V452.12h12.5v12.75h-12.5Zm0,12.44V464.87h12.5v12.44h-12.5Z" transform="translate(-141.43 -305.41)"/><path class="cls-1" d="M484.4,426.68V414H471.64v12.69H484.4Zm0,12.75V426.68H471.64v12.75H484.4Zm0,12.69V439.43H471.64v12.69H484.4Zm0,12.75V452.12H471.64v12.75H484.4ZM471.64,414V401.23H459V414h12.69Zm0,12.69V414H459v12.69h12.69Zm0,38.2V452.12H459v12.75h12.69Zm0,12.44V464.87H459v12.44h12.69ZM459,401.23V388.48H446.2v12.75H459ZM459,414V401.23H446.2V414H459Zm0,50.89V452.12H446.2v12.75H459Zm0,12.44V464.87H446.2v12.44H459ZM446.2,388.48V376H433.77v12.44H446.2Zm0,12.75V388.48H433.77v12.75H446.2Zm0,38.2V426.68H433.77v12.75H446.2Zm0,25.44V452.12H433.77v12.75H446.2Zm0,12.44V464.87H433.77v12.44H446.2ZM433.77,376V363.29H421V376h12.75Zm0,12.44V376H421v12.44h12.75Zm0,38.2V414H421v12.69h12.75Zm0,12.75V426.68H421v12.75h12.75Zm0,25.44V452.12H421v12.75h12.75Zm0,12.44V464.87H421v12.44h12.75ZM421,376V363.29H408.26V376H421Zm0,101.26V464.87H408.26v12.44H421Zm-12.75,0v12.56H421V477.31H408.26Zm0-101.26V363.29H395.57V376h12.69Zm0,101.26V464.87H395.57v12.44h12.69Zm-12.69,0v12.56h12.69V477.31H395.57Zm0-101.26V363.29H382.82V376h12.75Zm0,12.44V376H382.82v12.44h12.75Zm0,12.75V388.48H382.82v12.75h12.75Zm0,12.75V401.23H382.82V414h12.75Zm0,12.69V414H382.82v12.69h12.75Zm0,12.75V426.68H382.82v12.75h12.75Zm0,25.44V452.12H382.82v12.75h12.75Zm0,12.44V464.87H382.82v12.44h12.75Zm-12.75,0v12.56h12.75V477.31H382.82Zm0-88.83V376H370.13v12.44h12.69Zm0,12.75V388.48H370.13v12.75h12.69Zm0,12.75V401.23H370.13V414h12.69Zm0,12.69V414H370.13v12.69h12.69Zm0,12.75V426.68H370.13v12.75h12.69Zm0,12.69V439.43H370.13v12.69h12.69Zm0,12.75V452.12H370.13v12.75h12.69Zm0,12.44V464.87H370.13v12.44h12.69Zm-12.69,0v12.56h12.69V477.31H370.13Zm0-25.19V439.43h-12.5v12.69h12.5Zm0,12.75V452.12h-12.5v12.75h12.5Zm0,12.44V464.87h-12.5v12.44h12.5Z" transform="translate(-141.43 -305.41)"/></svg>